inDegrees=no
num_controls=7
num_derivatives=13
num_iterations=114
num_multipliers=7
num_parameters=0
num_slacks=7
num_states=26
objective=0.497084
objective_accelerations=0.032250
objective_balance=0.003259
objective_effort=0.035016
objective_height=0.421070
objective_ligament=0.005488
solver_duration=1326.357153
status=Solve_Succeeded
success=true
DataType=double
version=3
OpenSimVersion=4.5
endheader
time	/jointset/ground_pelvis/pelvis_tilt/value	/jointset/ground_pelvis/pelvis_tx/value	/jointset/ground_pelvis/pelvis_ty/value	/jointset/hip_r/hip_flexion_r/value	/jointset/hip_r/hip_adduction_r/value	/jointset/hip_r/hip_rotation_r/value	/jointset/back/lumbar_extension/value	/jointset/patellofemoral_r/patellar_flexion_r/value	/jointset/knee_r/knee_flexion_r/value	/jointset/knee_r/knee_adduction_r/value	/jointset/knee_r/knee_rotation_r/value	/jointset/ankle_r/ankle_angle_r/value	/jointset/subtalar_r/subtalar_angle_r/value	/jointset/ground_pelvis/pelvis_tilt/speed	/jointset/ground_pelvis/pelvis_tx/speed	/jointset/ground_pelvis/pelvis_ty/speed	/jointset/hip_r/hip_flexion_r/speed	/jointset/hip_r/hip_adduction_r/speed	/jointset/hip_r/hip_rotation_r/speed	/jointset/back/lumbar_extension/speed	/jointset/patellofemoral_r/patellar_flexion_r/speed	/jointset/knee_r/knee_flexion_r/speed	/jointset/knee_r/knee_adduction_r/speed	/jointset/knee_r/knee_rotation_r/speed	/jointset/ankle_r/ankle_angle_r/speed	/jointset/subtalar_r/subtalar_angle_r/speed	/forceset/tau_hip_flexion_r	/forceset/tau_hip_adduction_r	/forceset/tau_hip_rotation_r	/forceset/tau_knee_flexion_r	/forceset/tau_ankle_angle_r	/forceset/tau_subtalar_angle_r	/forceset/tau_lumbar_extension	lambda_cid13_p0	lambda_cid14_p0	lambda_cid14_p1	lambda_cid14_p2	lambda_cid14_p3	lambda_cid14_p4	lambda_cid14_p5	/jointset/ground_pelvis/pelvis_tilt/accel	/jointset/ground_pelvis/pelvis_tx/accel	/jointset/ground_pelvis/pelvis_ty/accel	/jointset/hip_r/hip_flexion_r/accel	/jointset/hip_r/hip_adduction_r/accel	/jointset/hip_r/hip_rotation_r/accel	/jointset/back/lumbar_extension/accel	/jointset/patellofemoral_r/patellar_flexion_r/accel	/jointset/knee_r/knee_flexion_r/accel	/jointset/knee_r/knee_adduction_r/accel	/jointset/knee_r/knee_rotation_r/accel	/jointset/ankle_r/ankle_angle_r/accel	/jointset/subtalar_r/subtalar_angle_r/accel	gamma_cid13_p0	gamma_cid14_p0	gamma_cid14_p1	gamma_cid14_p2	gamma_cid14_p3	gamma_cid14_p4	gamma_cid14_p5
1	-0.1832305456829955	0.03862030910368103	0.7500834471855566	1.097464044189858	-0.2365367803196533	-0.0711772763939237	-0.4362831175567723	1.156722850560875	1.156722850561126	-0.02860119180572307	0.1745303496065499	0.436312340723273	0.1034255627289274	0.0005001799411069854	0.004585869445020934	0.01285388081400689	-0.03756650963419512	0.001717814500408113	-0.009890791630401238	0.004943442989032575	-0.04570508367652828	-0.04570508367652823	0.000754327433389397	-6.109096897304544e-05	-0.00993958454531095	-0.0006932110439888594	-0.2002781444479306	0.02945229633058854	0.0133840155388979	-0.4428864500978056	-0.0438257957317898	0.005117829330147718	0.2454135863895024	-3.147420905379201	-61.34133842358685	-8.810492715967595	2.198983586173375	20.69975248409351	-771.4195609972467	55.24677778053259	0.955401458220944	0.006367584137849158	1.239864723482584	-3.894950295898439	0.1198275434528685	-0.5873525948921579	0.3018729164987022	-4.337075206633471	-4.337075206633485	0.4869546137947798	-0.0002976184120995081	-1.584972480322941	-0.3971822665297782	1.031453617227012e-09	-2.625423173653974e-09	2.972653045244979e-09	8.704566487472369e-09	7.01306486436707e-09	-4.407925283500208e-09	1.409664336102228e-09
1.01	-0.183178776940445	0.0386666508947123	0.7502738476290856	1.096894577802813	-0.2365137222679675	-0.07130498567433435	-0.4362165271476559	1.156049106918147	1.156049106918392	-0.0285686454378113	0.1745296584068373	0.4361338678651134	0.1033986357545906	0.009812811816962287	0.004700779854102059	0.02522574513874388	-0.07631709052701459	0.002891450943534515	-0.01565163583565336	0.008513767477720478	-0.08905893492249047	-0.08905893492249087	0.00576265298486258	-7.542666320158414e-05	-0.02573969349908164	-0.004689473992802741	-0.200938206433362	0.02955100583792935	0.01338605606867166	-0.4424702397585072	-0.04410677291419543	0.005128931216492374	0.2461397244457911	-3.174701364381547	-61.44386975199063	-8.818146662659608	2.193947770283286	20.54349799391764	-771.8174063232099	55.20192727699452	0.9130813269178117	0.01679771346992201	1.23577642572059	-3.863659818764853	0.1157830416748729	-0.5705348202065007	0.4054815115384635	-4.336833976739435	-4.336833976739531	0.5089282832578479	-0.00173965536569669	-1.575236822823541	-0.4004386735110179	1.91655521642064e-09	-1.799411099464879e-09	7.280614242176664e-09	1.616762059892976e-08	6.407735159486782e-09	-7.213117732845783e-09	5.985594427702909e-09
1.02	-0.183035104424205	0.03871469077866951	0.7505879525436122	1.095937896040279	-0.2364789975824658	-0.07149032029416845	-0.4361100596343542	1.154941365984329	1.154941365984566	-0.02848578446290305	0.1745288762280941	0.4357978525734316	0.1033318280778744	0.01888093467881707	0.004925488030207128	0.03759477501354199	-0.1150095847314843	0.004051141263955797	-0.02141585951549906	0.01291886382579785	-0.1325045418949269	-0.1325045418949274	0.01081724883370437	-7.928677492870507e-05	-0.04144807124962917	-0.008669351519769252	-0.2015982684188162	0.02964971534526794	0.01338809659846855	-0.4420540294192094	-0.04438775009659888	0.005140033102833509	0.2468658625020594	-3.219863143821828	-61.55663449069767	-8.82252189507232	2.182597529001799	20.40824801316949	-772.3791036864645	55.18196290646787	0.9064996554208627	0.02832713754261017	1.239297833494806	-3.88333295822846	0.117038318911847	-0.5880284898108759	0.4688272883765923	-4.355426351928318	-4.355426351928269	0.4962086732684975	0.001797498088185811	-1.566626239678357	-0.3939051821603167	2.776181889660065e-09	-1.098657781673406e-09	1.015831388039109e-08	2.440340205434145e-08	6.27455122883197e-09	-9.259641918553906e-09	8.529677757192774e-09
1.03	-0.1828019301370681	0.03876553611281506	0.7510256932358881	1.094594583376229	-0.2364327523627767	-0.07173328578652495	-0.4359554424127505	1.153398759088175	1.15339875908835	-0.02835212115442114	0.1745280958198081	0.4353052140808244	0.1032253046706965	0.02771551987736286	0.005262930308457633	0.04994862197982958	-0.1536408086159	0.005195225332497393	-0.02717461288100573	0.01813904749642496	-0.1760271331231264	-0.1760271331231258	0.01592537861959098	-7.711397172865475e-05	-0.0570640762876202	-0.01263195077121056	-0.202007649065659	0.02970537297071977	0.01340085980086113	-0.4414652511142834	-0.04440840723408631	0.00509714227267541	0.2473859873484439	-3.283290109204417	-61.5674115778825	-8.834465778356696	2.174712012988816	20.21253663973346	-772.5882507343226	55.11664919556038	0.8661786853228802	0.03935672776845794	1.232714636877907	-3.8511953022782	0.1126978124043226	-0.5694021218355482	0.5687839566452317	-4.352220608712174	-4.352220608712065	0.5196111575050019	-0.0006135854794573426	-1.556755929332374	-0.3969243732572505	3.635548614675466e-09	-3.9918261445742e-10	1.302141901290432e-08	3.264706848265063e-08	6.14618511219987e-09	-1.129842459136776e-08	1.105302795645701e-08
1.04	-0.1824815618512952	0.03882033666070336	0.7515868296995635	1.092865322833583	-0.2363751454300885	-0.07203375948491712	-0.4357445893443933	1.151420617259651	1.151420617259765	-0.02816707734283497	0.1745273289881705	0.4346568818791426	0.1030792578556794	0.03631973440596632	0.005716530778754016	0.06227392929340873	-0.1921991604495232	0.006323483864200528	-0.0329175007231151	0.02416603317663493	-0.2196115283691826	-0.2196115283691812	0.02109334945572634	-7.65714451436636e-05	-0.07258681306452774	-0.01657403308749993	-0.2024170297125402	0.02976103059616881	0.01341362300328374	-0.4408764728093594	-0.04442906437157065	0.005054251442513056	0.2479061121947933	-3.365509654758707	-61.5884025537583	-8.843015012579095	2.16036506940888	20.03603516135189	-772.9622973125124	55.07671815774862	0.8604255214324243	0.05155877595175322	1.233589902953119	-3.868758548069954	0.1138732115441606	-0.5848553851314159	0.6301876902931655	-4.36778715549965	-4.367787155499689	0.5081768833182374	0.001471442765167578	-1.547972587461713	-0.389801795129938	4.502308289193173e-09	5.014893726295539e-10	1.557810890555822e-08	4.112430336876138e-08	5.708606474004875e-09	-1.296771408737472e-08	1.339201905082525e-08
1.05	-0.1820763350946469	0.03888024629180162	0.7522710180802097	1.090750971917828	-0.2363063509614362	-0.07239157321270522	-0.4354694728524963	1.14900639586215	1.149006395862054	-0.02793003455248831	0.1745265794976793	0.4338537612796709	0.1028938668575861	0.04468170756049458	0.006284075472701125	0.07455285112569499	-0.2306434115240251	0.007431879220797978	-0.03864079052148697	0.03099092704720752	-0.2632354767511955	-0.2632354767511927	0.02632666006427485	-7.349228010988904e-05	-0.08802428686868954	-0.02050209558111149	-0.202535995904992	0.02972865840896252	0.01343598060722254	-0.4400862042964834	-0.0442390148974583	0.004986263046339426	0.2481725433748821	-3.467169497223125	-61.51956577747168	-8.843194162720769	2.140638115303369	19.82820041904789	-772.9352533401611	55.0241504178292	0.8174983185635282	0.06215536854297173	1.223406025007694	-3.828115535018293	0.1088019456479388	-0.565393245264013	0.7286895121150723	-4.360108605216457	-4.360108605216276	0.5326273634145423	-0.0002879544761320245	-1.539682829368438	-0.393988943347303	5.369298993382827e-09	1.408448760337495e-09	1.812522332196651e-08	4.960883726917843e-08	5.261364944511042e-09	-1.462545692160645e-08	1.572524892316549e-08
1.06	-0.1815888055852328	0.03894639198032454	0.7530776682195068	1.088253007061752	-0.2362265766896338	-0.07280648533208976	-0.4351220975665578	1.146155852995696	1.146155852995391	-0.02764031481330355	0.1745258579772699	0.4328966563316625	0.1026692591411821	0.05278028495904479	0.006963742263682394	0.08676628102364289	-0.2689219485136487	0.008519444494613091	-0.04433717904281993	0.03861779198481512	-0.3068758221597829	-0.3068758221597788	0.03162873922447734	-7.09774290209155e-05	-0.103383682771853	-0.02441737674954419	-0.2026549620974474	0.02969628622175387	0.01345833821119937	-0.4392959357836054	-0.04404896542334556	0.004918274650161049	0.2484389745549681	-3.589053204440241	-61.46088773169847	-8.839831832362192	2.11426964545737	19.63771480801296	-773.0734549780052	54.99764747548916	0.8077463702368464	0.07398319535854969	1.220491516085446	-3.835615731094267	0.1097071949877015	-0.5794751297236369	0.7905819037001699	-4.371066560814583	-4.371066560814595	0.5219305936490187	0.001358579976195162	-1.532357007262107	-0.3872455300941722	6.336077708532637e-09	2.291149251595619e-09	1.859830890867566e-08	5.876504758641168e-08	5.058942150967751e-09	-1.617486680401058e-08	1.58749861087296e-08
